<svg version="1.1" viewBox="0 0 16 16" xmlns="http://www.w3.org/2000/svg">
	<g transform="matrix(1.8135 0 0 1.8135 .0011157 .9084)">
		<g transform="matrix(.58505 0 0 1 -8.3054 -65.376)">
			<path d="m14.195 73.197h2.1061c1.1748 0 2.0002-0.17992 2.6882-0.58208 1.1853-0.6985 1.8098-1.8415 1.8098-3.302 0-1.4711-0.61383-2.6352-1.7674-3.3232-0.75142-0.4445-1.5769-0.61383-2.9951-0.61383h-1.8415zm0.78317-0.70908v-6.4029h1.0901c1.1748 0 1.9473 0.15875 2.5188 0.49742 0.89958 0.55033 1.4182 1.5346 1.4182 2.6988 0 1.0266-0.40217 1.9262-1.1218 2.5082-0.62442 0.49742-1.4288 0.6985-2.8152 0.6985z" stroke-width=".26458"/>
		</g>
		<g transform="translate(-17.002 -65.409)">
			<path d="m21.166 69.949h0.72864v0.1757h-0.97978v-0.1757q0.11886-0.12299 0.32349-0.3297 0.20567-0.20774 0.25838-0.26768 0.10025-0.11266 0.13953-0.19017 0.04031-0.07855 0.04031-0.154 0-0.12299-0.08682-0.2005-0.08578-0.07751-0.22428-0.07751-0.09819 0-0.20774 0.03411-0.10852 0.03411-0.23254 0.10335v-0.21084q0.12609-0.05064 0.23564-0.07648t0.2005-0.02584q0.23978 0 0.38241 0.11989t0.14263 0.32039q0 0.09508-0.03617 0.18087-0.03514 0.08475-0.12919 0.2005-0.02584 0.02997-0.16433 0.17363-0.13849 0.14263-0.39067 0.39998z" stroke-width=".26458"/>
		</g>
		<g transform="matrix(-.58505 0 0 1 17.127 -65.376)">
			<path d="m14.195 73.197h2.1061c1.1748 0 2.0002-0.17992 2.6882-0.58208 1.1853-0.6985 1.8098-1.8415 1.8098-3.302 0-1.4711-0.61383-2.6352-1.7674-3.3232-0.75142-0.4445-1.5769-0.61383-2.9951-0.61383h-1.8415zm0.78317-0.70908v-6.4029h1.0901c1.1748 0 1.9473 0.15875 2.5188 0.49742 0.89958 0.55033 1.4182 1.5346 1.4182 2.6988 0 1.0266-0.40217 1.9262-1.1218 2.5082-0.62442 0.49742-1.4288 0.6985-2.8152 0.6985z" stroke-width=".26458"/>
		</g>
	</g>
</svg>
