<?xml version="1.0" standalone="no"?>
<!DOCTYPE svg PUBLIC "-//W3C//DTD SVG 20010904//EN"
 "http://www.w3.org/TR/2001/REC-SVG-20010904/DTD/svg10.dtd">
<svg version="1.0" xmlns="http://www.w3.org/2000/svg"
 width="700.000000pt" height="700.000000pt" viewBox="0 0 700.000000 700.000000"
 preserveAspectRatio="xMidYMid meet">
<metadata>
Created by potrace 1.11, written by Peter Selinger 2001-2013
</metadata>
<g transform="translate(0.000000,700.000000) scale(0.100000,-0.100000)"
fill="#000000" stroke="none">
<path d="M10 6602 c-7 -3 -10 -1047 -10 -3103 l0 -3099 23 -1 c110 -4 1073 1
1142 5 97 7 171 15 195 21 8 3 33 7 55 10 50 8 170 40 250 67 173 59 378 186
524 322 67 63 231 249 231 262 0 3 6 12 13 19 29 33 39 49 107 157 75 119 178
321 230 454 35 87 116 327 124 365 2 13 16 69 30 124 14 55 27 111 30 125 3
14 8 36 11 50 8 38 53 319 59 370 5 43 16 152 22 215 23 247 23 792 0 1040
-13 134 -33 312 -41 355 -1 8 -6 35 -10 60 -21 143 -78 403 -109 505 -1 6 -8
30 -15 55 -89 319 -257 672 -433 906 -164 220 -320 365 -537 499 -93 58 -305
137 -421 159 -14 2 -45 9 -70 14 -25 6 -76 14 -115 17 -38 4 -73 9 -76 11 -22
13 -1173 28 -1209 16z m1240 -586 c198 -31 309 -65 465 -141 269 -130 463
-342 645 -704 119 -238 227 -584 271 -866 38 -239 44 -300 56 -500 13 -223 7
-604 -11 -765 -3 -19 -7 -60 -10 -90 -62 -578 -258 -1138 -511 -1464 -74 -96
-276 -286 -303 -286 -5 0 -15 -7 -23 -16 -17 -20 -167 -95 -244 -122 -57 -19
-166 -49 -210 -58 -11 -2 -31 -6 -45 -9 -29 -5 -86 -13 -190 -24 -41 -4 -233
-9 -425 -10 l-351 -2 0 2541 0 2542 391 -5 c294 -3 416 -9 495 -21z"/>
<path d="M6077 6604 c-1 -1 -58 -4 -127 -7 -265 -12 -535 -64 -685 -132 -16
-7 -57 -25 -90 -40 -32 -15 -71 -35 -85 -45 -14 -9 -45 -30 -70 -46 -356 -229
-669 -682 -854 -1235 -34 -102 -90 -306 -100 -359 -2 -14 -9 -43 -14 -65 -12
-44 -48 -245 -57 -315 -3 -25 -8 -56 -10 -70 -5 -31 -12 -94 -20 -180 -3 -36
-8 -83 -10 -105 -24 -226 -23 -858 0 -1050 2 -16 7 -64 11 -105 3 -41 8 -82 9
-91 2 -9 6 -40 10 -70 3 -30 8 -65 11 -79 2 -14 7 -43 9 -64 7 -55 41 -221 71
-345 207 -859 679 -1496 1259 -1699 66 -23 200 -58 255 -67 19 -3 60 -10 90
-15 104 -17 246 -22 783 -23 l537 -2 0 3103 c0 2474 -3 3102 -12 3103 -23 1
-910 4 -911 3z m559 -3105 l0 -2541 -391 5 c-214 3 -408 8 -430 11 -106 16
-172 26 -190 30 -278 59 -474 163 -655 345 -232 232 -402 560 -526 1011 -45
163 -94 432 -110 595 -3 33 -7 71 -10 85 -24 142 -24 620 0 925 34 426 156
889 320 1215 176 350 380 570 645 700 79 39 269 104 331 114 277 43 237 41
660 44 l356 3 0 -2542z"/>
<path d="M3399 4106 c-2 -2 -22 -6 -44 -10 -71 -10 -211 -51 -231 -67 -6 -5
-11 -43 -11 -88 0 -69 2 -78 16 -72 9 4 43 20 76 35 90 42 196 66 269 62 195
-12 287 -168 201 -341 -36 -73 -82 -125 -359 -409 -59 -61 -131 -135 -159
-163 l-51 -53 -1 -69 -1 -69 388 -1 c242 0 388 3 389 9 3 39 1 121 -3 125 -3
3 -133 5 -288 5 l-284 0 35 36 c19 20 107 111 195 202 192 198 245 260 284
328 78 135 71 294 -16 401 -71 87 -173 132 -314 138 -48 3 -89 3 -91 1z"/>
</g>
</svg>
